<mxfile host="Electron" modified="2025-07-04T23:10:35.871Z" agent="Mozilla/5.0 (Windows NT 10.0; Win64; x64) AppleWebKit/537.36 (KHTML, like Gecko) draw.io/21.2.1 Chrome/112.0.5615.87 Electron/24.1.2 Safari/537.36" etag="CWWMF6n4XSqpKlV2JWf7" version="21.2.1" type="device">
  <diagram name="PÃ¡gina-1" id="-arWTLmtHFH0gpfq8qig">
    <mxGraphModel dx="1691" dy="516" grid="1" gridSize="10" guides="1" tooltips="1" connect="1" arrows="1" fold="1" page="1" pageScale="1" pageWidth="827" pageHeight="1169" math="0" shadow="0">
      <root>
        <mxCell id="0" />
        <mxCell id="1" parent="0" />
        <mxCell id="iDKNDcv8hJbLNrwNT0TB-20" style="edgeStyle=orthogonalEdgeStyle;rounded=0;orthogonalLoop=1;jettySize=auto;html=1;exitX=1;exitY=0.5;exitDx=0;exitDy=0;entryX=0;entryY=0.5;entryDx=0;entryDy=0;" parent="1" source="iDKNDcv8hJbLNrwNT0TB-1" target="iDKNDcv8hJbLNrwNT0TB-6" edge="1">
          <mxGeometry relative="1" as="geometry" />
        </mxCell>
        <mxCell id="iDKNDcv8hJbLNrwNT0TB-1" value="2" style="ellipse;whiteSpace=wrap;html=1;aspect=fixed;" parent="1" vertex="1">
          <mxGeometry x="180" y="280" width="80" height="80" as="geometry" />
        </mxCell>
        <mxCell id="iDKNDcv8hJbLNrwNT0TB-22" style="edgeStyle=orthogonalEdgeStyle;rounded=0;orthogonalLoop=1;jettySize=auto;html=1;exitX=1;exitY=0.5;exitDx=0;exitDy=0;entryX=0;entryY=0.5;entryDx=0;entryDy=0;" parent="1" source="iDKNDcv8hJbLNrwNT0TB-2" target="iDKNDcv8hJbLNrwNT0TB-4" edge="1">
          <mxGeometry relative="1" as="geometry" />
        </mxCell>
        <mxCell id="iDKNDcv8hJbLNrwNT0TB-23" style="edgeStyle=orthogonalEdgeStyle;rounded=0;orthogonalLoop=1;jettySize=auto;html=1;exitX=1;exitY=0;exitDx=0;exitDy=0;entryX=0;entryY=0.5;entryDx=0;entryDy=0;" parent="1" source="iDKNDcv8hJbLNrwNT0TB-2" target="iDKNDcv8hJbLNrwNT0TB-11" edge="1">
          <mxGeometry relative="1" as="geometry" />
        </mxCell>
        <mxCell id="iDKNDcv8hJbLNrwNT0TB-24" style="edgeStyle=orthogonalEdgeStyle;rounded=0;orthogonalLoop=1;jettySize=auto;html=1;exitX=1;exitY=1;exitDx=0;exitDy=0;entryX=0;entryY=0.5;entryDx=0;entryDy=0;" parent="1" source="iDKNDcv8hJbLNrwNT0TB-2" target="iDKNDcv8hJbLNrwNT0TB-3" edge="1">
          <mxGeometry relative="1" as="geometry" />
        </mxCell>
        <mxCell id="iDKNDcv8hJbLNrwNT0TB-2" value="4" style="ellipse;whiteSpace=wrap;html=1;aspect=fixed;" parent="1" vertex="1">
          <mxGeometry x="430" y="280" width="80" height="80" as="geometry" />
        </mxCell>
        <mxCell id="iDKNDcv8hJbLNrwNT0TB-97" style="edgeStyle=orthogonalEdgeStyle;rounded=0;orthogonalLoop=1;jettySize=auto;html=1;entryX=0.026;entryY=0.646;entryDx=0;entryDy=0;entryPerimeter=0;" parent="1" source="iDKNDcv8hJbLNrwNT0TB-3" target="iDKNDcv8hJbLNrwNT0TB-8" edge="1">
          <mxGeometry relative="1" as="geometry" />
        </mxCell>
        <mxCell id="iDKNDcv8hJbLNrwNT0TB-3" value="6" style="ellipse;whiteSpace=wrap;html=1;aspect=fixed;" parent="1" vertex="1">
          <mxGeometry x="590" y="490" width="80" height="80" as="geometry" />
        </mxCell>
        <mxCell id="iDKNDcv8hJbLNrwNT0TB-25" style="edgeStyle=orthogonalEdgeStyle;rounded=0;orthogonalLoop=1;jettySize=auto;html=1;exitX=1;exitY=0.5;exitDx=0;exitDy=0;entryX=0;entryY=0.5;entryDx=0;entryDy=0;" parent="1" source="iDKNDcv8hJbLNrwNT0TB-4" target="iDKNDcv8hJbLNrwNT0TB-9" edge="1">
          <mxGeometry relative="1" as="geometry" />
        </mxCell>
        <mxCell id="iDKNDcv8hJbLNrwNT0TB-4" value="5" style="ellipse;whiteSpace=wrap;html=1;aspect=fixed;" parent="1" vertex="1">
          <mxGeometry x="590" y="280" width="80" height="80" as="geometry" />
        </mxCell>
        <mxCell id="iDKNDcv8hJbLNrwNT0TB-18" style="edgeStyle=orthogonalEdgeStyle;rounded=0;orthogonalLoop=1;jettySize=auto;html=1;exitX=1;exitY=0.5;exitDx=0;exitDy=0;entryX=0;entryY=0.5;entryDx=0;entryDy=0;" parent="1" source="iDKNDcv8hJbLNrwNT0TB-5" target="iDKNDcv8hJbLNrwNT0TB-7" edge="1">
          <mxGeometry relative="1" as="geometry" />
        </mxCell>
        <mxCell id="iDKNDcv8hJbLNrwNT0TB-5" value="INICIO" style="ellipse;whiteSpace=wrap;html=1;aspect=fixed;" parent="1" vertex="1">
          <mxGeometry x="-100" y="280" width="80" height="80" as="geometry" />
        </mxCell>
        <mxCell id="iDKNDcv8hJbLNrwNT0TB-21" style="edgeStyle=orthogonalEdgeStyle;rounded=0;orthogonalLoop=1;jettySize=auto;html=1;exitX=1;exitY=0.5;exitDx=0;exitDy=0;entryX=0;entryY=0.5;entryDx=0;entryDy=0;" parent="1" source="iDKNDcv8hJbLNrwNT0TB-6" target="iDKNDcv8hJbLNrwNT0TB-2" edge="1">
          <mxGeometry relative="1" as="geometry" />
        </mxCell>
        <mxCell id="iDKNDcv8hJbLNrwNT0TB-6" value="3" style="ellipse;whiteSpace=wrap;html=1;aspect=fixed;" parent="1" vertex="1">
          <mxGeometry x="300" y="280" width="80" height="80" as="geometry" />
        </mxCell>
        <mxCell id="iDKNDcv8hJbLNrwNT0TB-19" style="edgeStyle=orthogonalEdgeStyle;rounded=0;orthogonalLoop=1;jettySize=auto;html=1;exitX=1;exitY=0.5;exitDx=0;exitDy=0;entryX=0;entryY=0.5;entryDx=0;entryDy=0;" parent="1" source="iDKNDcv8hJbLNrwNT0TB-7" target="iDKNDcv8hJbLNrwNT0TB-1" edge="1">
          <mxGeometry relative="1" as="geometry" />
        </mxCell>
        <mxCell id="iDKNDcv8hJbLNrwNT0TB-7" value="1" style="ellipse;whiteSpace=wrap;html=1;aspect=fixed;" parent="1" vertex="1">
          <mxGeometry x="50" y="280" width="80" height="80" as="geometry" />
        </mxCell>
        <mxCell id="iDKNDcv8hJbLNrwNT0TB-8" value="FIN" style="ellipse;whiteSpace=wrap;html=1;aspect=fixed;" parent="1" vertex="1">
          <mxGeometry x="1030" y="280" width="80" height="80" as="geometry" />
        </mxCell>
        <mxCell id="iDKNDcv8hJbLNrwNT0TB-26" style="edgeStyle=orthogonalEdgeStyle;rounded=0;orthogonalLoop=1;jettySize=auto;html=1;exitX=1;exitY=0.5;exitDx=0;exitDy=0;entryX=0;entryY=0.5;entryDx=0;entryDy=0;" parent="1" source="iDKNDcv8hJbLNrwNT0TB-9" target="iDKNDcv8hJbLNrwNT0TB-10" edge="1">
          <mxGeometry relative="1" as="geometry" />
        </mxCell>
        <mxCell id="iDKNDcv8hJbLNrwNT0TB-9" value="8" style="ellipse;whiteSpace=wrap;html=1;aspect=fixed;" parent="1" vertex="1">
          <mxGeometry x="747" y="280" width="80" height="80" as="geometry" />
        </mxCell>
        <mxCell id="iDKNDcv8hJbLNrwNT0TB-27" style="edgeStyle=orthogonalEdgeStyle;rounded=0;orthogonalLoop=1;jettySize=auto;html=1;exitX=1;exitY=0.5;exitDx=0;exitDy=0;entryX=0;entryY=0.5;entryDx=0;entryDy=0;" parent="1" source="iDKNDcv8hJbLNrwNT0TB-10" target="iDKNDcv8hJbLNrwNT0TB-8" edge="1">
          <mxGeometry relative="1" as="geometry" />
        </mxCell>
        <mxCell id="iDKNDcv8hJbLNrwNT0TB-10" value="9" style="ellipse;whiteSpace=wrap;html=1;aspect=fixed;" parent="1" vertex="1">
          <mxGeometry x="880" y="280" width="80" height="80" as="geometry" />
        </mxCell>
        <mxCell id="iDKNDcv8hJbLNrwNT0TB-98" style="edgeStyle=orthogonalEdgeStyle;rounded=0;orthogonalLoop=1;jettySize=auto;html=1;entryX=0.026;entryY=0.322;entryDx=0;entryDy=0;entryPerimeter=0;" parent="1" source="iDKNDcv8hJbLNrwNT0TB-11" target="iDKNDcv8hJbLNrwNT0TB-8" edge="1">
          <mxGeometry relative="1" as="geometry" />
        </mxCell>
        <mxCell id="iDKNDcv8hJbLNrwNT0TB-11" value="7" style="ellipse;whiteSpace=wrap;html=1;aspect=fixed;" parent="1" vertex="1">
          <mxGeometry x="590" y="50" width="80" height="80" as="geometry" />
        </mxCell>
        <mxCell id="iDKNDcv8hJbLNrwNT0TB-28" value="0" style="text;html=1;strokeColor=none;fillColor=none;align=center;verticalAlign=middle;whiteSpace=wrap;rounded=0;" parent="1" vertex="1">
          <mxGeometry x="-110" y="370" width="60" height="30" as="geometry" />
        </mxCell>
        <mxCell id="iDKNDcv8hJbLNrwNT0TB-29" value="1" style="text;html=1;align=center;verticalAlign=middle;resizable=0;points=[];autosize=1;strokeColor=none;fillColor=none;" parent="1" vertex="1">
          <mxGeometry x="75" y="370" width="30" height="30" as="geometry" />
        </mxCell>
        <mxCell id="iDKNDcv8hJbLNrwNT0TB-30" value="3" style="text;html=1;align=center;verticalAlign=middle;resizable=0;points=[];autosize=1;strokeColor=none;fillColor=none;" parent="1" vertex="1">
          <mxGeometry x="205" y="240" width="30" height="30" as="geometry" />
        </mxCell>
        <mxCell id="iDKNDcv8hJbLNrwNT0TB-31" value="1" style="text;html=1;align=center;verticalAlign=middle;resizable=0;points=[];autosize=1;strokeColor=none;fillColor=none;" parent="1" vertex="1">
          <mxGeometry x="325" y="240" width="30" height="30" as="geometry" />
        </mxCell>
        <mxCell id="iDKNDcv8hJbLNrwNT0TB-32" value="1" style="text;html=1;align=center;verticalAlign=middle;resizable=0;points=[];autosize=1;strokeColor=none;fillColor=none;" parent="1" vertex="1">
          <mxGeometry x="455" y="240" width="30" height="30" as="geometry" />
        </mxCell>
        <mxCell id="iDKNDcv8hJbLNrwNT0TB-33" value="1" style="text;html=1;align=center;verticalAlign=middle;resizable=0;points=[];autosize=1;strokeColor=none;fillColor=none;" parent="1" vertex="1">
          <mxGeometry x="615" y="10" width="30" height="30" as="geometry" />
        </mxCell>
        <mxCell id="iDKNDcv8hJbLNrwNT0TB-34" value="1" style="text;html=1;align=center;verticalAlign=middle;resizable=0;points=[];autosize=1;strokeColor=none;fillColor=none;" parent="1" vertex="1">
          <mxGeometry x="615" y="240" width="30" height="30" as="geometry" />
        </mxCell>
        <mxCell id="iDKNDcv8hJbLNrwNT0TB-35" value="1" style="text;html=1;align=center;verticalAlign=middle;resizable=0;points=[];autosize=1;strokeColor=none;fillColor=none;" parent="1" vertex="1">
          <mxGeometry x="615" y="450" width="30" height="30" as="geometry" />
        </mxCell>
        <mxCell id="iDKNDcv8hJbLNrwNT0TB-36" value="20" style="text;html=1;align=center;verticalAlign=middle;resizable=0;points=[];autosize=1;strokeColor=none;fillColor=none;" parent="1" vertex="1">
          <mxGeometry x="767" y="240" width="40" height="30" as="geometry" />
        </mxCell>
        <mxCell id="iDKNDcv8hJbLNrwNT0TB-37" value="2" style="text;html=1;align=center;verticalAlign=middle;resizable=0;points=[];autosize=1;strokeColor=none;fillColor=none;" parent="1" vertex="1">
          <mxGeometry x="905" y="240" width="30" height="30" as="geometry" />
        </mxCell>
        <mxCell id="iDKNDcv8hJbLNrwNT0TB-38" value="0" style="text;html=1;align=center;verticalAlign=middle;resizable=0;points=[];autosize=1;strokeColor=none;fillColor=none;" parent="1" vertex="1">
          <mxGeometry x="1055" y="240" width="30" height="30" as="geometry" />
        </mxCell>
        <mxCell id="iDKNDcv8hJbLNrwNT0TB-39" value="" style="endArrow=none;html=1;rounded=0;entryX=0.69;entryY=-0.033;entryDx=0;entryDy=0;entryPerimeter=0;" parent="1" target="iDKNDcv8hJbLNrwNT0TB-28" edge="1">
          <mxGeometry width="50" height="50" relative="1" as="geometry">
            <mxPoint x="-70" y="420" as="sourcePoint" />
            <mxPoint x="-20" y="370" as="targetPoint" />
          </mxGeometry>
        </mxCell>
        <mxCell id="iDKNDcv8hJbLNrwNT0TB-40" value="" style="endArrow=none;html=1;rounded=0;" parent="1" edge="1">
          <mxGeometry width="50" height="50" relative="1" as="geometry">
            <mxPoint x="-100" y="400" as="sourcePoint" />
            <mxPoint x="-50" y="400" as="targetPoint" />
          </mxGeometry>
        </mxCell>
        <mxCell id="iDKNDcv8hJbLNrwNT0TB-41" value="0" style="text;html=1;align=center;verticalAlign=middle;resizable=0;points=[];autosize=1;strokeColor=none;fillColor=none;" parent="1" vertex="1">
          <mxGeometry x="-75" y="370" width="30" height="30" as="geometry" />
        </mxCell>
        <mxCell id="iDKNDcv8hJbLNrwNT0TB-42" value="0" style="text;html=1;align=center;verticalAlign=middle;resizable=0;points=[];autosize=1;strokeColor=none;fillColor=none;" parent="1" vertex="1">
          <mxGeometry x="-95" y="400" width="30" height="30" as="geometry" />
        </mxCell>
        <mxCell id="iDKNDcv8hJbLNrwNT0TB-43" value="0" style="text;html=1;align=center;verticalAlign=middle;resizable=0;points=[];autosize=1;strokeColor=none;fillColor=none;" parent="1" vertex="1">
          <mxGeometry x="-75" y="400" width="30" height="30" as="geometry" />
        </mxCell>
        <mxCell id="iDKNDcv8hJbLNrwNT0TB-44" value="" style="endArrow=none;html=1;rounded=0;" parent="1" edge="1">
          <mxGeometry width="50" height="50" relative="1" as="geometry">
            <mxPoint x="75" y="418" as="sourcePoint" />
            <mxPoint x="75" y="368" as="targetPoint" />
          </mxGeometry>
        </mxCell>
        <mxCell id="iDKNDcv8hJbLNrwNT0TB-45" value="" style="endArrow=none;html=1;rounded=0;" parent="1" edge="1">
          <mxGeometry width="50" height="50" relative="1" as="geometry">
            <mxPoint x="50" y="400" as="sourcePoint" />
            <mxPoint x="110" y="400" as="targetPoint" />
          </mxGeometry>
        </mxCell>
        <mxCell id="iDKNDcv8hJbLNrwNT0TB-46" value="0" style="text;html=1;align=center;verticalAlign=middle;resizable=0;points=[];autosize=1;strokeColor=none;fillColor=none;" parent="1" vertex="1">
          <mxGeometry x="45" y="370" width="30" height="30" as="geometry" />
        </mxCell>
        <mxCell id="iDKNDcv8hJbLNrwNT0TB-47" value="" style="endArrow=none;html=1;rounded=0;exitX=0.556;exitY=1.05;exitDx=0;exitDy=0;exitPerimeter=0;" parent="1" source="iDKNDcv8hJbLNrwNT0TB-49" edge="1">
          <mxGeometry width="50" height="50" relative="1" as="geometry">
            <mxPoint x="185" y="399.6" as="sourcePoint" />
            <mxPoint x="245" y="399.6" as="targetPoint" />
          </mxGeometry>
        </mxCell>
        <mxCell id="iDKNDcv8hJbLNrwNT0TB-48" value="" style="endArrow=none;html=1;rounded=0;" parent="1" edge="1">
          <mxGeometry width="50" height="50" relative="1" as="geometry">
            <mxPoint x="219.8" y="420" as="sourcePoint" />
            <mxPoint x="219.8" y="370" as="targetPoint" />
          </mxGeometry>
        </mxCell>
        <mxCell id="iDKNDcv8hJbLNrwNT0TB-49" value="1" style="text;html=1;align=center;verticalAlign=middle;resizable=0;points=[];autosize=1;strokeColor=none;fillColor=none;" parent="1" vertex="1">
          <mxGeometry x="180" y="368" width="30" height="30" as="geometry" />
        </mxCell>
        <mxCell id="iDKNDcv8hJbLNrwNT0TB-50" value="4" style="text;html=1;align=center;verticalAlign=middle;resizable=0;points=[];autosize=1;strokeColor=none;fillColor=none;" parent="1" vertex="1">
          <mxGeometry x="225" y="368" width="30" height="30" as="geometry" />
        </mxCell>
        <mxCell id="iDKNDcv8hJbLNrwNT0TB-51" value="" style="endArrow=none;html=1;rounded=0;" parent="1" edge="1">
          <mxGeometry width="50" height="50" relative="1" as="geometry">
            <mxPoint x="339.66" y="418" as="sourcePoint" />
            <mxPoint x="339.66" y="368" as="targetPoint" />
          </mxGeometry>
        </mxCell>
        <mxCell id="iDKNDcv8hJbLNrwNT0TB-52" value="" style="endArrow=none;html=1;rounded=0;" parent="1" edge="1">
          <mxGeometry width="50" height="50" relative="1" as="geometry">
            <mxPoint x="310" y="398" as="sourcePoint" />
            <mxPoint x="370" y="398" as="targetPoint" />
          </mxGeometry>
        </mxCell>
        <mxCell id="iDKNDcv8hJbLNrwNT0TB-53" value="4" style="text;html=1;align=center;verticalAlign=middle;resizable=0;points=[];autosize=1;strokeColor=none;fillColor=none;" parent="1" vertex="1">
          <mxGeometry x="305" y="368" width="30" height="30" as="geometry" />
        </mxCell>
        <mxCell id="iDKNDcv8hJbLNrwNT0TB-54" value="5" style="text;html=1;align=center;verticalAlign=middle;resizable=0;points=[];autosize=1;strokeColor=none;fillColor=none;" parent="1" vertex="1">
          <mxGeometry x="345" y="368" width="30" height="30" as="geometry" />
        </mxCell>
        <mxCell id="iDKNDcv8hJbLNrwNT0TB-55" value="" style="endArrow=none;html=1;rounded=0;" parent="1" edge="1">
          <mxGeometry width="50" height="50" relative="1" as="geometry">
            <mxPoint x="440" y="400" as="sourcePoint" />
            <mxPoint x="500" y="400" as="targetPoint" />
          </mxGeometry>
        </mxCell>
        <mxCell id="iDKNDcv8hJbLNrwNT0TB-57" value="" style="endArrow=none;html=1;rounded=0;" parent="1" edge="1">
          <mxGeometry width="50" height="50" relative="1" as="geometry">
            <mxPoint x="469.66" y="420" as="sourcePoint" />
            <mxPoint x="469.66" y="370" as="targetPoint" />
          </mxGeometry>
        </mxCell>
        <mxCell id="iDKNDcv8hJbLNrwNT0TB-58" value="5" style="text;html=1;align=center;verticalAlign=middle;resizable=0;points=[];autosize=1;strokeColor=none;fillColor=none;" parent="1" vertex="1">
          <mxGeometry x="435" y="368" width="30" height="30" as="geometry" />
        </mxCell>
        <mxCell id="iDKNDcv8hJbLNrwNT0TB-59" value="6" style="text;html=1;align=center;verticalAlign=middle;resizable=0;points=[];autosize=1;strokeColor=none;fillColor=none;" parent="1" vertex="1">
          <mxGeometry x="480" y="368" width="30" height="30" as="geometry" />
        </mxCell>
        <mxCell id="iDKNDcv8hJbLNrwNT0TB-60" value="" style="endArrow=none;html=1;rounded=0;" parent="1" edge="1">
          <mxGeometry width="50" height="50" relative="1" as="geometry">
            <mxPoint x="629.6600000000001" y="418" as="sourcePoint" />
            <mxPoint x="629.6600000000001" y="368" as="targetPoint" />
          </mxGeometry>
        </mxCell>
        <mxCell id="iDKNDcv8hJbLNrwNT0TB-61" value="" style="endArrow=none;html=1;rounded=0;" parent="1" edge="1">
          <mxGeometry width="50" height="50" relative="1" as="geometry">
            <mxPoint x="629.6600000000001" y="635" as="sourcePoint" />
            <mxPoint x="629.6600000000001" y="585" as="targetPoint" />
          </mxGeometry>
        </mxCell>
        <mxCell id="iDKNDcv8hJbLNrwNT0TB-62" value="" style="endArrow=none;html=1;rounded=0;" parent="1" edge="1">
          <mxGeometry width="50" height="50" relative="1" as="geometry">
            <mxPoint x="629.66" y="200" as="sourcePoint" />
            <mxPoint x="629.66" y="150" as="targetPoint" />
          </mxGeometry>
        </mxCell>
        <mxCell id="iDKNDcv8hJbLNrwNT0TB-63" value="" style="endArrow=none;html=1;rounded=0;" parent="1" edge="1">
          <mxGeometry width="50" height="50" relative="1" as="geometry">
            <mxPoint x="600" y="397.31" as="sourcePoint" />
            <mxPoint x="660" y="397.31" as="targetPoint" />
          </mxGeometry>
        </mxCell>
        <mxCell id="iDKNDcv8hJbLNrwNT0TB-64" value="" style="endArrow=none;html=1;rounded=0;" parent="1" edge="1">
          <mxGeometry width="50" height="50" relative="1" as="geometry">
            <mxPoint x="600" y="610" as="sourcePoint" />
            <mxPoint x="660" y="610" as="targetPoint" />
          </mxGeometry>
        </mxCell>
        <mxCell id="iDKNDcv8hJbLNrwNT0TB-65" value="" style="endArrow=none;html=1;rounded=0;" parent="1" edge="1">
          <mxGeometry width="50" height="50" relative="1" as="geometry">
            <mxPoint x="600" y="170" as="sourcePoint" />
            <mxPoint x="660" y="170" as="targetPoint" />
          </mxGeometry>
        </mxCell>
        <mxCell id="iDKNDcv8hJbLNrwNT0TB-66" value="6" style="text;html=1;align=center;verticalAlign=middle;resizable=0;points=[];autosize=1;strokeColor=none;fillColor=none;" parent="1" vertex="1">
          <mxGeometry x="595" y="138" width="30" height="30" as="geometry" />
        </mxCell>
        <mxCell id="iDKNDcv8hJbLNrwNT0TB-67" value="7" style="text;html=1;align=center;verticalAlign=middle;resizable=0;points=[];autosize=1;strokeColor=none;fillColor=none;" parent="1" vertex="1">
          <mxGeometry x="635" y="138" width="30" height="30" as="geometry" />
        </mxCell>
        <mxCell id="iDKNDcv8hJbLNrwNT0TB-68" value="6" style="text;html=1;align=center;verticalAlign=middle;resizable=0;points=[];autosize=1;strokeColor=none;fillColor=none;" parent="1" vertex="1">
          <mxGeometry x="595" y="368" width="30" height="30" as="geometry" />
        </mxCell>
        <mxCell id="iDKNDcv8hJbLNrwNT0TB-69" value="7" style="text;html=1;align=center;verticalAlign=middle;resizable=0;points=[];autosize=1;strokeColor=none;fillColor=none;" parent="1" vertex="1">
          <mxGeometry x="635" y="368" width="30" height="30" as="geometry" />
        </mxCell>
        <mxCell id="iDKNDcv8hJbLNrwNT0TB-70" value="6" style="text;html=1;align=center;verticalAlign=middle;resizable=0;points=[];autosize=1;strokeColor=none;fillColor=none;" parent="1" vertex="1">
          <mxGeometry x="595" y="578" width="30" height="30" as="geometry" />
        </mxCell>
        <mxCell id="iDKNDcv8hJbLNrwNT0TB-71" value="7" style="text;html=1;align=center;verticalAlign=middle;resizable=0;points=[];autosize=1;strokeColor=none;fillColor=none;" parent="1" vertex="1">
          <mxGeometry x="635" y="578" width="30" height="30" as="geometry" />
        </mxCell>
        <mxCell id="iDKNDcv8hJbLNrwNT0TB-72" value="" style="endArrow=none;html=1;rounded=0;" parent="1" edge="1">
          <mxGeometry width="50" height="50" relative="1" as="geometry">
            <mxPoint x="757" y="390" as="sourcePoint" />
            <mxPoint x="817" y="390" as="targetPoint" />
          </mxGeometry>
        </mxCell>
        <mxCell id="iDKNDcv8hJbLNrwNT0TB-73" value="" style="endArrow=none;html=1;rounded=0;" parent="1" edge="1">
          <mxGeometry width="50" height="50" relative="1" as="geometry">
            <mxPoint x="786.6600000000001" y="418" as="sourcePoint" />
            <mxPoint x="786.6600000000001" y="368" as="targetPoint" />
          </mxGeometry>
        </mxCell>
        <mxCell id="iDKNDcv8hJbLNrwNT0TB-74" value="7" style="text;html=1;align=center;verticalAlign=middle;resizable=0;points=[];autosize=1;strokeColor=none;fillColor=none;" parent="1" vertex="1">
          <mxGeometry x="757" y="360" width="30" height="30" as="geometry" />
        </mxCell>
        <mxCell id="iDKNDcv8hJbLNrwNT0TB-75" value="27" style="text;html=1;align=center;verticalAlign=middle;resizable=0;points=[];autosize=1;strokeColor=none;fillColor=none;" parent="1" vertex="1">
          <mxGeometry x="787" y="360" width="40" height="30" as="geometry" />
        </mxCell>
        <mxCell id="iDKNDcv8hJbLNrwNT0TB-76" value="" style="endArrow=none;html=1;rounded=0;" parent="1" edge="1">
          <mxGeometry width="50" height="50" relative="1" as="geometry">
            <mxPoint x="919.6600000000001" y="418" as="sourcePoint" />
            <mxPoint x="919.6600000000001" y="368" as="targetPoint" />
          </mxGeometry>
        </mxCell>
        <mxCell id="iDKNDcv8hJbLNrwNT0TB-77" value="" style="endArrow=none;html=1;rounded=0;" parent="1" edge="1">
          <mxGeometry width="50" height="50" relative="1" as="geometry">
            <mxPoint x="890" y="390" as="sourcePoint" />
            <mxPoint x="950" y="390" as="targetPoint" />
          </mxGeometry>
        </mxCell>
        <mxCell id="iDKNDcv8hJbLNrwNT0TB-78" value="27" style="text;html=1;align=center;verticalAlign=middle;resizable=0;points=[];autosize=1;strokeColor=none;fillColor=none;" parent="1" vertex="1">
          <mxGeometry x="880" y="358" width="40" height="30" as="geometry" />
        </mxCell>
        <mxCell id="iDKNDcv8hJbLNrwNT0TB-79" value="29" style="text;html=1;align=center;verticalAlign=middle;resizable=0;points=[];autosize=1;strokeColor=none;fillColor=none;" parent="1" vertex="1">
          <mxGeometry x="920" y="358" width="40" height="30" as="geometry" />
        </mxCell>
        <mxCell id="iDKNDcv8hJbLNrwNT0TB-80" value="" style="endArrow=none;html=1;rounded=0;" parent="1" edge="1">
          <mxGeometry width="50" height="50" relative="1" as="geometry">
            <mxPoint x="1040" y="388" as="sourcePoint" />
            <mxPoint x="1100" y="388" as="targetPoint" />
          </mxGeometry>
        </mxCell>
        <mxCell id="iDKNDcv8hJbLNrwNT0TB-81" value="" style="endArrow=none;html=1;rounded=0;" parent="1" edge="1">
          <mxGeometry width="50" height="50" relative="1" as="geometry">
            <mxPoint x="1069.66" y="418" as="sourcePoint" />
            <mxPoint x="1069.66" y="368" as="targetPoint" />
          </mxGeometry>
        </mxCell>
        <mxCell id="iDKNDcv8hJbLNrwNT0TB-82" value="29" style="text;html=1;align=center;verticalAlign=middle;resizable=0;points=[];autosize=1;strokeColor=none;fillColor=none;" parent="1" vertex="1">
          <mxGeometry x="1030" y="360" width="40" height="30" as="geometry" />
        </mxCell>
        <mxCell id="iDKNDcv8hJbLNrwNT0TB-83" value="29" style="text;html=1;align=center;verticalAlign=middle;resizable=0;points=[];autosize=1;strokeColor=none;fillColor=none;" parent="1" vertex="1">
          <mxGeometry x="1070" y="360" width="40" height="30" as="geometry" />
        </mxCell>
        <mxCell id="iDKNDcv8hJbLNrwNT0TB-84" value="29" style="text;html=1;align=center;verticalAlign=middle;resizable=0;points=[];autosize=1;strokeColor=none;fillColor=none;" parent="1" vertex="1">
          <mxGeometry x="1070" y="390" width="40" height="30" as="geometry" />
        </mxCell>
        <mxCell id="iDKNDcv8hJbLNrwNT0TB-85" value="29" style="text;html=1;align=center;verticalAlign=middle;resizable=0;points=[];autosize=1;strokeColor=none;fillColor=none;" parent="1" vertex="1">
          <mxGeometry x="1030" y="388" width="40" height="30" as="geometry" />
        </mxCell>
        <mxCell id="iDKNDcv8hJbLNrwNT0TB-86" value="1" style="text;html=1;align=center;verticalAlign=middle;resizable=0;points=[];autosize=1;strokeColor=none;fillColor=none;" parent="1" vertex="1">
          <mxGeometry x="75" y="240" width="30" height="30" as="geometry" />
        </mxCell>
        <mxCell id="iDKNDcv8hJbLNrwNT0TB-87" value="29" style="text;html=1;align=center;verticalAlign=middle;resizable=0;points=[];autosize=1;strokeColor=none;fillColor=none;" parent="1" vertex="1">
          <mxGeometry x="920" y="388" width="40" height="30" as="geometry" />
        </mxCell>
        <mxCell id="iDKNDcv8hJbLNrwNT0TB-88" value="27" style="text;html=1;align=center;verticalAlign=middle;resizable=0;points=[];autosize=1;strokeColor=none;fillColor=none;" parent="1" vertex="1">
          <mxGeometry x="880" y="388" width="40" height="30" as="geometry" />
        </mxCell>
        <mxCell id="iDKNDcv8hJbLNrwNT0TB-89" value="27" style="text;html=1;align=center;verticalAlign=middle;resizable=0;points=[];autosize=1;strokeColor=none;fillColor=none;" parent="1" vertex="1">
          <mxGeometry x="787" y="390" width="40" height="30" as="geometry" />
        </mxCell>
        <mxCell id="iDKNDcv8hJbLNrwNT0TB-90" value="7" style="text;html=1;align=center;verticalAlign=middle;resizable=0;points=[];autosize=1;strokeColor=none;fillColor=none;" parent="1" vertex="1">
          <mxGeometry x="757" y="390" width="30" height="30" as="geometry" />
        </mxCell>
        <mxCell id="iDKNDcv8hJbLNrwNT0TB-91" value="29" style="text;html=1;align=center;verticalAlign=middle;resizable=0;points=[];autosize=1;strokeColor=none;fillColor=none;" parent="1" vertex="1">
          <mxGeometry x="630" y="178" width="40" height="30" as="geometry" />
        </mxCell>
        <mxCell id="iDKNDcv8hJbLNrwNT0TB-92" value="7" style="text;html=1;align=center;verticalAlign=middle;resizable=0;points=[];autosize=1;strokeColor=none;fillColor=none;" parent="1" vertex="1">
          <mxGeometry x="635" y="400" width="30" height="30" as="geometry" />
        </mxCell>
        <mxCell id="iDKNDcv8hJbLNrwNT0TB-93" value="29" style="text;html=1;align=center;verticalAlign=middle;resizable=0;points=[];autosize=1;strokeColor=none;fillColor=none;" parent="1" vertex="1">
          <mxGeometry x="630" y="618" width="40" height="30" as="geometry" />
        </mxCell>
        <mxCell id="iDKNDcv8hJbLNrwNT0TB-94" value="28" style="text;html=1;align=center;verticalAlign=middle;resizable=0;points=[];autosize=1;strokeColor=none;fillColor=none;" parent="1" vertex="1">
          <mxGeometry x="590" y="618" width="40" height="30" as="geometry" />
        </mxCell>
        <mxCell id="iDKNDcv8hJbLNrwNT0TB-95" value="6" style="text;html=1;align=center;verticalAlign=middle;resizable=0;points=[];autosize=1;strokeColor=none;fillColor=none;" parent="1" vertex="1">
          <mxGeometry x="595" y="400" width="30" height="30" as="geometry" />
        </mxCell>
        <mxCell id="iDKNDcv8hJbLNrwNT0TB-96" value="28" style="text;html=1;align=center;verticalAlign=middle;resizable=0;points=[];autosize=1;strokeColor=none;fillColor=none;" parent="1" vertex="1">
          <mxGeometry x="590" y="178" width="40" height="30" as="geometry" />
        </mxCell>
        <mxCell id="iDKNDcv8hJbLNrwNT0TB-99" value="6" style="text;html=1;align=center;verticalAlign=middle;resizable=0;points=[];autosize=1;strokeColor=none;fillColor=none;" parent="1" vertex="1">
          <mxGeometry x="480" y="398" width="30" height="30" as="geometry" />
        </mxCell>
        <mxCell id="iDKNDcv8hJbLNrwNT0TB-100" value="5" style="text;html=1;align=center;verticalAlign=middle;resizable=0;points=[];autosize=1;strokeColor=none;fillColor=none;" parent="1" vertex="1">
          <mxGeometry x="435" y="400" width="30" height="30" as="geometry" />
        </mxCell>
        <mxCell id="iDKNDcv8hJbLNrwNT0TB-101" value="5" style="text;html=1;align=center;verticalAlign=middle;resizable=0;points=[];autosize=1;strokeColor=none;fillColor=none;" parent="1" vertex="1">
          <mxGeometry x="345" y="398" width="30" height="30" as="geometry" />
        </mxCell>
        <mxCell id="iDKNDcv8hJbLNrwNT0TB-102" value="4" style="text;html=1;align=center;verticalAlign=middle;resizable=0;points=[];autosize=1;strokeColor=none;fillColor=none;" parent="1" vertex="1">
          <mxGeometry x="305" y="398" width="30" height="30" as="geometry" />
        </mxCell>
        <mxCell id="iDKNDcv8hJbLNrwNT0TB-103" value="4" style="text;html=1;align=center;verticalAlign=middle;resizable=0;points=[];autosize=1;strokeColor=none;fillColor=none;" parent="1" vertex="1">
          <mxGeometry x="225" y="400" width="30" height="30" as="geometry" />
        </mxCell>
        <mxCell id="iDKNDcv8hJbLNrwNT0TB-106" value="1" style="text;html=1;align=center;verticalAlign=middle;resizable=0;points=[];autosize=1;strokeColor=none;fillColor=none;" parent="1" vertex="1">
          <mxGeometry x="180" y="400" width="30" height="30" as="geometry" />
        </mxCell>
        <mxCell id="iDKNDcv8hJbLNrwNT0TB-108" value="1" style="text;html=1;align=center;verticalAlign=middle;resizable=0;points=[];autosize=1;strokeColor=none;fillColor=none;" parent="1" vertex="1">
          <mxGeometry x="75" y="400" width="30" height="30" as="geometry" />
        </mxCell>
        <mxCell id="iDKNDcv8hJbLNrwNT0TB-111" value="0" style="text;html=1;align=center;verticalAlign=middle;resizable=0;points=[];autosize=1;strokeColor=none;fillColor=none;" parent="1" vertex="1">
          <mxGeometry x="45" y="400" width="30" height="30" as="geometry" />
        </mxCell>
        <mxCell id="iDKNDcv8hJbLNrwNT0TB-112" value="0" style="text;html=1;align=center;verticalAlign=middle;resizable=0;points=[];autosize=1;strokeColor=none;fillColor=none;" parent="1" vertex="1">
          <mxGeometry x="-75" y="240" width="30" height="30" as="geometry" />
        </mxCell>
        <mxCell id="iDKNDcv8hJbLNrwNT0TB-113" value="H=0" style="text;html=1;align=center;verticalAlign=middle;resizable=0;points=[];autosize=1;strokeColor=none;fillColor=none;" parent="1" vertex="1">
          <mxGeometry x="-45" y="350" width="50" height="30" as="geometry" />
        </mxCell>
        <mxCell id="iDKNDcv8hJbLNrwNT0TB-114" value="H=0" style="text;html=1;align=center;verticalAlign=middle;resizable=0;points=[];autosize=1;strokeColor=none;fillColor=none;" parent="1" vertex="1">
          <mxGeometry x="110" y="350" width="50" height="30" as="geometry" />
        </mxCell>
        <mxCell id="iDKNDcv8hJbLNrwNT0TB-115" value="H=0" style="text;html=1;align=center;verticalAlign=middle;resizable=0;points=[];autosize=1;strokeColor=none;fillColor=none;" parent="1" vertex="1">
          <mxGeometry x="245" y="340" width="50" height="30" as="geometry" />
        </mxCell>
        <mxCell id="iDKNDcv8hJbLNrwNT0TB-116" value="H=0" style="text;html=1;align=center;verticalAlign=middle;resizable=0;points=[];autosize=1;strokeColor=none;fillColor=none;" parent="1" vertex="1">
          <mxGeometry x="364" y="340" width="50" height="30" as="geometry" />
        </mxCell>
        <mxCell id="iDKNDcv8hJbLNrwNT0TB-117" value="H=0" style="text;html=1;align=center;verticalAlign=middle;resizable=0;points=[];autosize=1;strokeColor=none;fillColor=none;" parent="1" vertex="1">
          <mxGeometry x="500" y="350" width="50" height="30" as="geometry" />
        </mxCell>
        <mxCell id="iDKNDcv8hJbLNrwNT0TB-118" value="H=0" style="text;html=1;align=center;verticalAlign=middle;resizable=0;points=[];autosize=1;strokeColor=none;fillColor=none;" parent="1" vertex="1">
          <mxGeometry x="665" y="340" width="50" height="30" as="geometry" />
        </mxCell>
        <mxCell id="iDKNDcv8hJbLNrwNT0TB-119" value="H=0" style="text;html=1;align=center;verticalAlign=middle;resizable=0;points=[];autosize=1;strokeColor=none;fillColor=none;" parent="1" vertex="1">
          <mxGeometry x="820" y="340" width="50" height="30" as="geometry" />
        </mxCell>
        <mxCell id="iDKNDcv8hJbLNrwNT0TB-120" value="H=0" style="text;html=1;align=center;verticalAlign=middle;resizable=0;points=[];autosize=1;strokeColor=none;fillColor=none;" parent="1" vertex="1">
          <mxGeometry x="960" y="338" width="50" height="30" as="geometry" />
        </mxCell>
        <mxCell id="iDKNDcv8hJbLNrwNT0TB-121" value="H=0" style="text;html=1;align=center;verticalAlign=middle;resizable=0;points=[];autosize=1;strokeColor=none;fillColor=none;" parent="1" vertex="1">
          <mxGeometry x="1110" y="338" width="50" height="30" as="geometry" />
        </mxCell>
        <mxCell id="iDKNDcv8hJbLNrwNT0TB-122" value="H=22" style="text;html=1;align=center;verticalAlign=middle;resizable=0;points=[];autosize=1;strokeColor=none;fillColor=none;" parent="1" vertex="1">
          <mxGeometry x="670" y="548" width="50" height="30" as="geometry" />
        </mxCell>
        <mxCell id="iDKNDcv8hJbLNrwNT0TB-123" value="H=22" style="text;html=1;align=center;verticalAlign=middle;resizable=0;points=[];autosize=1;strokeColor=none;fillColor=none;" parent="1" vertex="1">
          <mxGeometry x="670" y="100" width="50" height="30" as="geometry" />
        </mxCell>
      </root>
    </mxGraphModel>
  </diagram>
</mxfile>
